<?xml version="1.0" encoding="UTF-8"?>
<svg id="Layer_1" data-name="Layer 1" xmlns="http://www.w3.org/2000/svg" viewBox="0 0 141.73 45.37">
  <defs>
    <style>
      .cls-1 {
        fill: #131718;
      }
    </style>
  </defs>
  <path class="cls-1" d="M140.34,32.61h-.53c-.88,0-1.66.53-2,1.34-.51,1.17-1.16,2.16-1.95,2.95-.53.53-1.1.94-1.73,1.24-.63.3-1.27.44-1.93.44-.97,0-1.67-.19-2.09-.56-.43-.37-.64-1.02-.64-1.95s.09-1.6.26-2.18l3.92-18.31h2.67c1.37,0,2.54-.96,2.81-2.31l.47-2.33h-5.02l2.31-10.68-9.99,1.35-2.04,9.33h-1.88c-.83,0-1.58.38-2.08.99-.8-.71-1.79-1.07-2.98-1.07-1.4,0-2.82.42-4.28,1.26-.94.56-2.17,1.5-3.67,2.83l.84-4.09h-9.5l-4.93,23.27c-.05.1-.1.19-.14.3-.43,1.08-.93,1.96-1.49,2.66-1.01,1.25-2.13,1.88-3.36,1.88-1.85,0-2.77-.97-2.77-2.9,0-.79.1-1.52.3-2.18l4.85-22.94h-9.73l-.73,3.59v-.49c0-1.03-.46-1.86-1.37-2.49-.91-.63-2.28-.94-4.1-.94-3.67,0-6.91,1.35-9.73,4.05-2.19,2.13-3.96,4.85-5.31,8.18.08-.44.15-.88.22-1.32.32-2.18.48-4.2.48-6.07,0-1.69-.31-3.04-.92-4.05-.73-1.21-1.84-1.81-3.33-1.81-1.38,0-2.43.34-3.13,1.01-.7.67-1.05,1.56-1.05,2.65,0,.9.21,1.67.63,2.31.44.75,1.04,1.12,1.81,1.12.44,0,.83-.05,1.19-.16.55-.13.87-.3.96-.49,0,1.23-.14,2.64-.41,4.24s-.65,3.23-1.14,4.9c-.51,1.71-1.12,3.37-1.83,4.98-.71,1.61-1.49,3.01-2.32,4.22-.9,1.32-1.86,2.35-2.87,3.1-1.01.75-2.04,1.12-3.1,1.12-.79,0-1.37-.2-1.75-.59-.37-.4-.56-.94-.56-1.65,0-.55.12-1.36.36-2.44l4.85-22.94h-9.73l-4.85,22.94c-.13.62-.22,1.25-.27,1.88-.27.5-.56.94-.87,1.32-1.01,1.25-2.13,1.88-3.36,1.88-1.85,0-2.77-.97-2.77-2.9,0-.79.1-1.52.3-2.18l4.85-22.94h-9.73l-.73,3.59v-.49c0-1.03-.46-1.86-1.37-2.49-.91-.63-2.28-.94-4.1-.94-3.67,0-6.91,1.35-9.73,4.05-2.44,2.37-4.36,5.5-5.77,9.36-.62,1.71-1.08,3.45-1.4,5.21-.32,1.76-.48,3.43-.48,5.01,0,3.74.92,6.55,2.77,8.44,1.58,1.61,3.66,2.41,6.23,2.41,2.22,0,4.23-.66,6.03-1.98,1.41-1.01,2.75-2.42,4.02-4.22.24,2.04.93,3.59,2.06,4.63s2.65,1.57,4.57,1.57c1.49,0,2.91-.26,4.25-.79,1.82-.73,3.46-1.91,4.91-3.56.2-.24.4-.49.6-.74.35,1.27.96,2.3,1.83,3.1,1.45,1.33,3.48,1.99,6.1,1.99,4.24,0,7.95-1.77,11.11-5.31,2.17-2.39,3.97-5.52,5.4-9.38-.19,1.33-.29,2.62-.29,3.84,0,3.74.92,6.55,2.77,8.44,1.58,1.61,3.66,2.41,6.23,2.41,2.22,0,4.23-.66,6.03-1.98,1.41-1.01,2.75-2.42,4.02-4.22.24,2.04.93,3.59,2.06,4.63,1.13,1.04,2.65,1.57,4.57,1.57,1.49,0,2.91-.26,4.25-.79,1.65-.66,3.14-1.69,4.49-3.1l-.56,2.62h9.5l5.28-25.05c.99-.9,1.8-1.55,2.45-1.93.64-.39,1.43-.58,2.35-.58.32,0,.56.11.71.32.19.3.39.91.58,1.83.06.34.18.7.35,1.06.19.37.46.64.8.84.34.19.8.29,1.38.29.75,0,1.43-.14,2.04-.42.61-.28,1.13-.65,1.56-1.13.39-.45.68-.95.87-1.51.19-.56.29-1.14.29-1.74,0-.08,0-.16,0-.24h1.45l-3.65,17.03c-.35,1.67-.53,3.14-.53,4.42,0,2.7.7,4.76,2.11,6.16,1.25,1.28,2.96,1.91,5.11,1.91,1.54,0,3.01-.26,4.42-.79,1.93-.73,3.67-1.91,5.21-3.56,1.69-1.87,3.11-4.34,4.28-7.4.14-.36-.13-.75-.52-.75ZM19.83,32.61c-.4,1.82-1.19,3.31-2.37,4.45-.53.48-1.07.86-1.63,1.12-.56.26-1.09.4-1.6.4-.44,0-.84-.04-1.19-.13-.35-.09-.67-.29-.96-.59-.84-.79-1.25-2.31-1.25-4.55,0-1.08.1-2.28.3-3.61s.49-2.68.89-4.04c.86-3.08,1.95-5.57,3.26-7.48.75-1.05,1.54-1.88,2.39-2.47.85-.59,1.72-.89,2.62-.89s1.68.32,2.21.96c.18.26.31.54.41.84.1.3.15.56.15.78l-3.23,15.23ZM79.43,32.61c-.4,1.82-1.19,3.31-2.37,4.45-.53.48-1.07.86-1.63,1.12-.56.26-1.09.4-1.6.4-.44,0-.84-.04-1.19-.13-.35-.09-.67-.29-.96-.59-.84-.79-1.25-2.31-1.25-4.55,0-1.08.1-2.28.3-3.61.2-1.33.49-2.68.89-4.04.86-3.08,1.95-5.57,3.26-7.48.75-1.05,1.54-1.88,2.39-2.47.85-.59,1.72-.89,2.62-.89s1.68.32,2.21.96c.18.26.31.54.41.84.1.3.15.56.15.78l-3.23,15.23Z"/>
</svg>